# AST/ASF file generated using VICON BodyLanguage
# -----------------------------------------------
:version 1.10
:name VICON
:units
  mass 1.0
  length 0.45
  angle deg
:documentation
   .ast/.asf automatically generated from VICON data using
   VICON BodyBuilder and BodyLanguage model FoxedUp or BRILLIANT.MOD
:root
   order TX TY TZ RX RY RZ
   axis XYZ
   position 0 0 0  
   orientation 0 0 0 
:bonedata
  begin
     id 1 
     name lhipjoint
     direction 0.528046 -0.759594 0.379717 
     length 2.39752 
     axis 0 0 0  XYZ
  end
  begin
     id 2 
     name lfemur
     direction 0.34202 -0.939693 0  
     length 7.31175  
     axis 0 0 20  XYZ
    dof rx ry rz
    limits (-160.0 20.0)
           (-70.0 70.0)
           (-60.0 70.0)
  end
  begin
     id 3 
     name ltibia
     direction 0.34202 -0.939693 0   
     length 7.52482   
     axis 0 0 20   XYZ
    dof rx
    limits (-10.0 170.0)
  end
  begin
     id 4 
     name lfoot
     direction 0.0675379 -0.185559 0.980309   
     length 2.00961   
     axis -90 7.62852e-016 20   XYZ
    dof rx rz
    limits (-45.0 90.0)
           (-70.0 20.0)
  end
  begin
     id 5 
     name ltoes
     direction 1.5352e-011 -4.22286e-011 1   
     length 1.01383   
     axis -90 7.62852e-016 20   XYZ
    dof rx
    limits (-90.0 20.0)
  end
  begin
     id 6 
     name rhipjoint
     direction -0.510274 -0.769251 0.384544   
     length 2.36742  
     axis 0 0 0  XYZ 
  end
  begin
     id 7 
     name rfemur
     direction -0.34202 -0.939693 0   
     length 7.45325   
     axis 0 0 -20   XYZ
    dof rx ry rz
    limits (-160.0 20.0)
           (-70.0 70.0)
           (-70.0 60.0)
  end
  begin
     id 8 
     name rtibia
     direction -0.34202 -0.939693 0   
     length 7.49587   
     axis 0 0 -20   XYZ
    dof rx
    limits (-10.0 170.0)
 end
 begin
     id 9 
     name rfoot
     direction -0.106475 -0.292536 0.950308   
     length 2.20898  
     axis -90 -7.62852e-016 -20   XYZ
    dof rx rz
    limits (-45.0 90.0)
           (-20.0 70.0)
  end
  begin
     id 10 
     name rtoes
     direction -1.53597e-011 -4.22023e-011 1   
     length 1.10065   
     axis -90 -7.62852e-016 -20   XYZ
    dof rx
    limits (-90.0 20.0)
  end
  begin
     id 11 
     name lowerback
     direction 0.0260024 0.998026 -0.0571652   
     length 2.11214   
     axis 0 0 0   XYZ
    dof rx ry rz
    limits (-20.0 45.0)
           (-30.0 30.0)
           (-30.0 30.0)
  end
  begin
     id 12 
     name upperback
     direction 0.0216202 0.999542 -0.0211766   
     length 2.11689   
     axis 0 0 0   XYZ
    dof rx ry rz
    limits (-20.0 45.0)
           (-30.0 30.0)
           (-30.0 30.0)
  end
  begin
     id 13 
     name thorax
     direction 0.00883312 0.999944 0.00589057   
     length 2.11821   
     axis 0 0 0   XYZ
    dof rx ry rz
    limits (-20.0 45.0)
           (-30.0 30.0)
           (-30.0 30.0)
  end
  begin
     id 14 
     name lowerneck
     direction -0.059386 0.994433 0.0870401   
     length 1.81176   
     axis 0 0 0   XYZ
    dof rx ry rz
    limits (-20.0 45.0)
           (-30.0 30.0)
           (-30.0 30.0)
  end
  begin
     id 15 
     name upperneck
     direction 0.0506457 0.97328 -0.223967   
     length 1.82382   
     axis 0 0 0   XYZ
    dof rx ry rz
    limits (-20.0 45.0)
           (-30.0 30.0)
           (-30.0 30.0)
  end
  begin
     id 16
     name head
     direction 0.0205902 0.996147 -0.0852487  
     length 1.84805  
     axis 0 0 0   XYZ
    dof rx ry rz
    limits (-20.0 45.0)
           (-30.0 30.0)
           (-30.0 30.0)
  end
  begin
     id 17 
     name lclavicle
     direction 0.949493 0.303881 -0.0782325  
     length 3.60584  
     axis 0 0 0   XYZ
    dof ry rz
    limits (-20.0 10.0)
           (0.0 20.0)
  end
  begin
     id 18 
     name lhumerus
     direction 1 -4.48965e-011 1.48782e-027   
     length 4.95681   
     axis 180 -30 -90   XYZ
    dof rx ry rz
    limits (-60.0 90.0)
           (-90.0 90.0)
           (-90.0 90.0)
  end
  begin
     id 19
     name lradius
     direction 1 -4.48952e-011 2.06528e-027   
     length 3.40915   
     axis 180 -30 -90   XYZ
    dof rx
    limits (-10.0 170.0)
  end
  begin
     id 20
     name lwrist
     direction 1 -4.48964e-011 1.28021e-027   
     length 1.70457   
     axis -1.61767e-015 90 90   XYZ
    dof ry
    limits (-180.0 0.0)
 end
  begin
     id 21 
     name lhand
     direction 1 -4.49094e-011 2.54887e-027   
     length 0.616403   
     axis -1.63363e-015 90 90   XYZ
    dof rx rz
    limits (-90.0 90.0)
           (-45.0 45.0)
  end
  begin
     id 22 
     name lfingers
     direction 1 -4.49002e-011 5.11407e-027   
     length 0.49696   
     axis -3.26723e-015 90 90   XYZ
    dof rx
    limits (0.0 90.0)
  end
  begin
     id 23
     name lthumb
     direction 0.707107 -6.34998e-011 0.707107   
     length 0.713539   
     axis -90 45 -2.25915e-014   XYZ
    dof rx rz
    limits (-45.0 45.0)
           (-45.0 45.0)
  end
  begin
     id 24 
     name rclavicle
     direction -0.937751 0.334612 -0.0930482   
     length 3.46287  
     axis 0 0 0   XYZ 
    dof ry rz
    limits (-10.0 20.0)
           (-20.0 0.0)
  end
  begin
     id 25 
     name rhumerus
     direction -1 -4.48962e-011 3.59972e-027  
     length 5.352   
     axis 180 30 90   XYZ
    dof rx ry rz
    limits (-90.0 60.0)
           (-90.0 90.0)
           (-90.0 90.0)
  end
  begin
     id 26 
     name rradius
     direction -1 -4.48987e-011 -3.76925e-027   
     length 3.43721   
     axis 180 30 90   XYZ
    dof rx
    limits (-10.0 170.0)
  end
  begin
     id 27 
     name rwrist
     direction -1 -4.48943e-011 1.28112e-027   
     length 1.7186   
     axis -1.61767e-015 -90 -90   XYZ
    dof ry
    limits (-180.0 0.0)
  end
  begin
     id 28
     name rhand
     direction -1 -4.49027e-011 2.55483e-027   
     length 0.72009   
     axis -1.63363e-015 -90 -90   XYZ
    dof rx rz
    limits (-90.0 90.0)
           (-45.0 45.0)
  end
  begin
     id 29
     name rfingers
     direction -1 -4.48827e-011 5.14506e-027   
     length 0.580555   
     axis -3.26723e-015 -90 -90   XYZ
    dof rx
    limits (0.0 90.0)
  end
  begin
     id 30
     name rthumb
     direction -0.707107 -6.34936e-011 0.707107   
     length 0.833564   
     axis -90 -45 2.25915e-014   XYZ
    dof rx rz
    limits (-45.0 45.0)
           (-45.0 45.0)
  end
:hierarchy
  begin
    root lhipjoint rhipjoint lowerback
    lhipjoint lfemur
    lfemur ltibia
    ltibia lfoot
    lfoot ltoes
    rhipjoint rfemur
    rfemur rtibia
    rtibia rfoot
    rfoot rtoes
    lowerback upperback
    upperback thorax
    thorax lowerneck lclavicle rclavicle
    lowerneck upperneck
    upperneck head
    lclavicle lhumerus
    lhumerus lradius
    lradius lwrist
    lwrist lhand lthumb
    lhand lfingers
    rclavicle rhumerus
    rhumerus rradius
    rradius rwrist
    rwrist rhand rthumb
    rhand rfingers
  end

#!OML:ASF H:\Terrain\Patient Classification 1\Terrain2\Thursday\justin.ASF
:FULLY-SPECIFIED
:DEGREES
134
root 6.2803 17.7245 -20.2894 239.64 80.6043 238.49
lowerback 2.43468 -0.394308 6.89942
upperback 3.28003 -0.312411 5.16225
thorax 2.0121 0.0237327 1.47385
lowerneck -13.2863 -2.48735 -8.80027
upperneck 40.0274 0.799357 0.899874
head 16.7708 -0.223969 2.31751
rclavicle 4.47266e-015 -4.69132e-014
rhumerus -31.9851 -16.1352 -75.2886
rradius 29.2953
rwrist -10.6974
rhand -20.7123 13.3237
rfingers 7.12502
rthumb 5.65208 -16.5809
lclavicle 4.47266e-015 -4.69132e-014
lhumerus -37.3774 5.54967 82.7564
lradius 35.3144
lwrist 2.77173
lhand -16.1295 20.9146
lfingers 7.12502
lthumb 10.0752 50.6534
rfemur -10.5934 -8.12233 32.2747
rtibia 18.6592
rfoot -8.32975 7.21644
rtoes 14.2249
lfemur -9.0438 0.37399 -9.16721
ltibia 57.7929
lfoot 7.41905 -8.22805
ltoes 9.53314
135
root 6.37847 17.7252 -20.2821 239.916 80.5527 238.812
lowerback 2.31497 -0.15514 7.2381
upperback 3.32149 -0.0116092 4.92445
thorax 2.13166 0.184476 1.03875
lowerneck -13.3979 -2.65984 -8.49661
upperneck 40.2466 0.42523 1.04618
head 16.936 -0.31214 2.27278
rclavicle 9.44227e-015 -5.56597e-015
rhumerus -31.8915 -16.3903 -75.5529
rradius 29.5719
rwrist -11.1189
rhand -21.1916 13.36
rfingers 7.12502
rthumb 5.18937 -16.5565
lclavicle 9.44227e-015 -5.56597e-015
lhumerus -36.8916 5.07926 82.5514
lradius 35.7226
lwrist 3.77376
lhand -17.0641 21.0079
lfingers 7.12502
lthumb 9.17354 50.7884
rfemur -9.97194 -8.55588 32.3446
rtibia 18.1991
rfoot -8.40445 7.8242
rtoes 13.837
lfemur -10.094 0.784694 -8.99501
ltibia 58.7074
lfoot 6.37746 -7.91993
ltoes 6.99925
136
root 6.47924 17.7201 -20.2698 241.403 80.3144 240.578
lowerback 2.47307 -0.0485623 7.51527
upperback 3.36134 0.15388 4.96799
thorax 2.09212 0.275245 0.930112
lowerneck -13.4167 -2.73117 -8.36032
upperneck 40.4864 0.342759 0.989307
head 17.079 -0.330565 2.21739
rclavicle -1.88845e-015 1.59028e-015
rhumerus -32.0011 -15.7009 -75.7648
rradius 30.219
rwrist -11.6321
rhand -21.2207 13.4953
rfingers 7.12502
rthumb 5.16126 -16.4218
lclavicle -1.88845e-015 1.59028e-015
lhumerus -36.674 5.12894 82.3784
lradius 36.1606
lwrist 4.52461
lhand -17.5695 20.8858
lfingers 7.12502
lthumb 8.68579 50.6871
rfemur -9.18264 -8.16203 32.6519
rtibia 17.8835
rfoot -8.2264 7.73518
rtoes 16.2307
lfemur -10.8424 1.20633 -8.49328
ltibia 59.4829
lfoot 5.33555 -7.99747
ltoes 5.40961
137
root 6.58289 17.7097 -20.2567 242.281 80.23 241.801
lowerback 2.65207 0.125048 7.66632
upperback 3.43916 0.406936 5.00282
thorax 2.084 0.408126 0.881276
lowerneck -13.3351 -2.83758 -8.44172
upperneck 40.5439 0.226707 0.978637
head 17.1014 -0.38638 2.20936
rclavicle 7.95139e-015 -7.95139e-015
rhumerus -31.9273 -15.4687 -75.6778
rradius 30.5826
rwrist -11.6644
rhand -20.7809 13.7852
rfingers 7.12502
rthumb 5.58589 -16.1212
lclavicle 7.95139e-015 -7.95139e-015
lhumerus -36.4189 5.09745 82.3271
lradius 36.6281
lwrist 5.30736
lhand -17.5504 20.7711
lfingers 7.12502
lthumb 8.70423 50.5716
rfemur -8.33078 -7.8538 32.7799
rtibia 17.6411
rfoot -8.15819 7.52156
rtoes 18.8544
lfemur -11.4594 1.57854 -8.17603
ltibia 60.1351
lfoot 4.40235 -8.35127
ltoes 5.459
138
root 6.67992 17.6961 -20.2486 242.669 80.2137 242.346
lowerback 2.71547 0.225201 7.77235
upperback 3.4021 0.55273 5.00751
thorax 2.01728 0.481028 0.825414
lowerneck -13.0614 -2.86054 -8.40243
upperneck 40.5209 0.25095 0.787204
head 17.0203 -0.386448 2.11981
rclavicle 1.27222e-014 5.56597e-015
rhumerus -31.8252 -15.2612 -75.5771
rradius 30.8387
rwrist -11.8175
rhand -20.581 14.045
rfingers 7.12502
rthumb 5.7789 -15.8562
lclavicle 1.27222e-014 5.56597e-015
lhumerus -36.3318 5.50997 82.1922
lradius 37.1435
lwrist 5.97033
lhand -17.6664 20.7836
lfingers 7.12502
lthumb 8.59229 50.5887
rfemur -7.69477 -8.032 32.815
rtibia 17.4204
rfoot -8.23778 7.73037
rtoes 20.0818
lfemur -12.3218 1.90909 -7.9984
ltibia 60.7462
lfoot 3.59548 -8.7616
ltoes 8.78941
139
root 6.7725 17.6844 -20.2387 242.329 80.2427 242.145
lowerback 2.80502 0.185444 7.59019
upperback 3.33957 0.512401 5.06459
thorax 1.89676 0.452104 0.983149
lowerneck -12.7423 -2.80338 -8.30424
upperneck 40.4884 0.427567 0.461359
head 16.9145 -0.333194 1.98552
rclavicle -1.6201e-014 -6.36111e-015
rhumerus -31.7459 -14.511 -75.6198
rradius 31.1711
rwrist -12.3107
rhand -20.5619 13.9151
rfingers 7.12502
rthumb 5.79729 -15.9856
lclavicle -1.6201e-014 -6.36111e-015
lhumerus -36.4524 6.34015 81.9891
lradius 37.8241
lwrist 6.41583
lhand -17.8535 20.8271
lfingers 7.12502
lthumb 8.41172 50.6396
rfemur -7.16076 -7.9852 32.7516
rtibia 17.3233
rfoot -8.43531 7.70141
rtoes 20.1778
lfemur -13.2342 2.0976 -7.96592
ltibia 61.2537
lfoot 2.74962 -9.12135
ltoes 12.0265
140
root 6.87173 17.677 -20.2316 243.394 79.982 243.324
lowerback 2.67099 0.304799 7.93869
upperback 3.43613 0.657251 5.07051
thorax 2.08445 0.540738 0.799912
lowerneck -12.6926 -2.83991 -8.18771
upperneck 40.3766 0.330662 0.428604
head 16.8433 -0.357613 1.93017
rclavicle -7.45443e-015 8.74653e-015
rhumerus -31.3772 -14.2587 -75.8007
rradius 31.2619
rwrist -12.3931
rhand -20.7677 13.4735
rfingers 7.12502
rthumb 5.59868 -16.4325
lclavicle -7.45443e-015 8.74653e-015
lhumerus -36.2878 6.44548 81.8451
lradius 38.7135
lwrist 7.22127
lhand -18.1408 20.8706
lfingers 7.12502
lthumb 8.13449 50.694
rfemur -6.68891 -7.9857 33.1406
rtibia 17.3124
rfoot -8.91838 7.57289
rtoes 17.8663
lfemur -14.1253 2.30504 -7.55965
ltibia 61.6687
lfoot 1.6574 -9.47274
ltoes 11.5795
141
root 6.9751 17.6678 -20.2237 245.038 79.6247 245.169
lowerback 2.5633 0.547863 8.52695
upperback 3.57975 0.96926 5.03529
thorax 2.3236 0.722846 0.444207
lowerneck -12.8662 -3.03386 -8.20314
upperneck 40.4443 -0.0249143 0.639883
head 16.9436 -0.479912 1.96821
rclavicle 5.36719e-015 -5.00937e-014
rhumerus -31.0283 -14.211 -75.9718
rradius 31.3688
rwrist -12.5112
rhand -20.9764 13.4333
rfingers 7.12502
rthumb 5.39717 -16.4779
lclavicle 5.36719e-015 -5.00937e-014
lhumerus -35.932 6.06802 81.7675
lradius 39.4131
lwrist 8.01611
lhand -18.4613 20.8502
lfingers 7.12502
lthumb 7.82513 50.6854
rfemur -6.34325 -8.10293 33.6385
rtibia 17.8782
rfoot -9.77268 7.62226
rtoes 16.4411
lfemur -14.8236 2.54765 -6.99409
ltibia 61.8542
lfoot 0.705899 -9.90314
ltoes 10.9823
142
root 7.06557 17.6482 -20.2141 245.455 79.5799 245.708
lowerback 2.67113 0.753511 8.71655
upperback 3.5162 1.26111 4.92329
thorax 2.22074 0.867759 0.219655
lowerneck -12.9162 -3.22894 -8.17134
upperneck 40.724 -0.316487 0.734847
head 17.1304 -0.577794 1.96344
rclavicle -1.95803e-014 -6.04305e-014
rhumerus -31.0233 -14.1562 -75.9445
rradius 31.6886
rwrist -12.85
rhand -20.7871 13.5181
rfingers 7.12502
rthumb 5.57994 -16.3884
lclavicle -1.95803e-014 -6.04305e-014
lhumerus -35.8234 5.68344 81.6894
lradius 39.9197
lwrist 8.57924
lhand -18.7809 20.8872
lfingers 7.12502
lthumb 7.5166 50.7336
rfemur -6.1022 -7.35818 33.6364
rtibia 18.583
rfoot -10.2841 7.33544
rtoes 20.5068
lfemur -15.6536 2.82944 -6.87065
ltibia 61.9223
lfoot 0.0254162 -10.1944
ltoes 11.3761
